<svg width="503px" height="503px" viewBox="0 0 503 503" version="1.1" xmlns="http://www.w3.org/2000/svg" xmlns:xlink="http://www.w3.org/1999/xlink" xmlns:sketch="http://www.bohemiancoding.com/sketch/ns">

    <g id="Page-1" stroke="none" stroke-width="1" fill="none" fill-rule="evenodd" sketch:type="MSPage">
        <g id="Group" sketch:type="MSLayerGroup" transform="translate(-76.000000, -64.000000)" fill="#D8D8D8">
            <path d="M546.09174,192.696034 C504.026386,117.846125 424.543539,66.8448451 333.000009,65.0490038 L333,115.06128 C406.035424,116.853358 469.359483,157.7982 502.779017,217.702646 L546.09174,192.696034 Z" id="Oval-1" sketch:type="MSShapeGroup"></path>
            <path d="M640.978661,377.11104 C598.913307,302.261132 519.43046,251.259852 427.88693,249.464011 L427.886921,299.476286 C500.922345,301.268365 564.246404,342.213207 597.665938,402.117653 L640.978661,377.11104 Z" id="Oval-3" sketch:type="MSShapeGroup" transform="translate(534.432791, 325.790832) rotate(-300.000000) translate(-534.432791, -325.790832) "></path>
            <path d="M528.714041,551.493028 C486.648687,476.643119 407.16584,425.641839 315.62231,423.845998 L315.622301,473.858274 C388.657725,475.650352 451.981784,516.595195 485.401317,576.49964 L528.714041,551.493028 Z" id="Oval-4" sketch:type="MSShapeGroup" transform="translate(422.168171, 500.172819) rotate(-240.000000) translate(-422.168171, -500.172819) "></path>
            <path d="M321.5625,541.460008 C279.497146,466.6101 200.014299,415.60882 108.470769,413.812979 L108.47076,463.825254 C181.506184,465.617333 244.830243,506.562175 278.249776,566.466621 L321.5625,541.460008 Z" id="Oval-5" sketch:type="MSShapeGroup" transform="translate(215.016630, 490.139800) rotate(-180.000000) translate(-215.016630, -490.139800) "></path>
            <path d="M226.675579,357.045002 C184.610225,282.195093 105.127378,231.193813 13.5838478,229.397972 L13.5838387,279.410248 C86.6192628,281.202326 149.943322,322.147169 183.362855,382.051614 L226.675579,357.045002 Z" id="Oval-6" sketch:type="MSShapeGroup" transform="translate(120.129709, 305.724793) rotate(-120.000000) translate(-120.129709, -305.724793) "></path>
            <path d="M338.940199,182.663014 C296.874845,107.813106 217.391998,56.8118258 125.848468,55.0159846 L125.848459,105.02826 C198.883883,106.820339 262.207942,147.765181 295.627475,207.669627 L338.940199,182.663014 Z" id="Oval-7" sketch:type="MSShapeGroup" transform="translate(232.394329, 131.342806) rotate(-60.000000) translate(-232.394329, -131.342806) "></path>
        </g>
    </g>
</svg>